<?xml version="1.0" encoding="UTF-8"?>
<svg width="116px" height="26px" viewBox="0 0 116 26" version="1.1" xmlns="http://www.w3.org/2000/svg" xmlns:xlink="http://www.w3.org/1999/xlink">
    <!-- Generator: Sketch 59.1 (86144) - https://sketch.com -->
    <title>Artboard</title>
    <desc>Created with Sketch.</desc>
    <g id="Artboard" stroke="none" stroke-width="1" fill="none" fill-rule="evenodd">
        <g id="Group" transform="translate(1.000000, 2.000000)" fill="#FFEC00" fill-rule="nonzero">
            <g id="star">
                <path d="M11.73115,0.865869231 L14.58085,7.56550385 L21.87645,8.18806154 C22.38245,8.23146923 22.5883,8.85859615 22.2042,9.18872308 L16.6704,13.9510038 L18.3287,21.0355962 C18.4437,21.5279308 17.90665,21.9151731 17.47195,21.6535846 L11.20215,17.8976769 L4.93235,21.6535846 C4.4965,21.9140308 3.9606,21.5267885 4.0756,21.0355962 L5.7339,13.9510038 L0.19895,9.18758077 C-0.18515,8.85745385 0.01955,8.23032692 0.5267,8.18691923 L7.8223,7.56436154 L10.672,0.865869231 C10.8698,0.399807692 11.53335,0.399807692 11.73115,0.865869231 Z" id="Path"></path>
            </g>
            <g id="star" transform="translate(30.000000, 0.000000)">
                <path d="M11.73115,0.865869231 L14.58085,7.56550385 L21.87645,8.18806154 C22.38245,8.23146923 22.5883,8.85859615 22.2042,9.18872308 L16.6704,13.9510038 L18.3287,21.0355962 C18.4437,21.5279308 17.90665,21.9151731 17.47195,21.6535846 L11.20215,17.8976769 L4.93235,21.6535846 C4.4965,21.9140308 3.9606,21.5267885 4.0756,21.0355962 L5.7339,13.9510038 L0.19895,9.18758077 C-0.18515,8.85745385 0.01955,8.23032692 0.5267,8.18691923 L7.8223,7.56436154 L10.672,0.865869231 C10.8698,0.399807692 11.53335,0.399807692 11.73115,0.865869231 Z" id="Path"></path>
            </g>
            <g id="star" transform="translate(60.000000, 0.000000)">
                <path d="M11.73115,0.865869231 L14.58085,7.56550385 L21.87645,8.18806154 C22.38245,8.23146923 22.5883,8.85859615 22.2042,9.18872308 L16.6704,13.9510038 L18.3287,21.0355962 C18.4437,21.5279308 17.90665,21.9151731 17.47195,21.6535846 L11.20215,17.8976769 L4.93235,21.6535846 C4.4965,21.9140308 3.9606,21.5267885 4.0756,21.0355962 L5.7339,13.9510038 L0.19895,9.18758077 C-0.18515,8.85745385 0.01955,8.23032692 0.5267,8.18691923 L7.8223,7.56436154 L10.672,0.865869231 C10.8698,0.399807692 11.53335,0.399807692 11.73115,0.865869231 Z" id="Path"></path>
            </g>
            <g id="star" transform="translate(90.000000, 0.000000)">
                <path d="M11.73115,0.865869231 L14.58085,7.56550385 L21.87645,8.18806154 C22.38245,8.23146923 22.5883,8.85859615 22.2042,9.18872308 L16.6704,13.9510038 L18.3287,21.0355962 C18.4437,21.5279308 17.90665,21.9151731 17.47195,21.6535846 L11.20215,17.8976769 L4.93235,21.6535846 C4.4965,21.9140308 3.9606,21.5267885 4.0756,21.0355962 L5.7339,13.9510038 L0.19895,9.18758077 C-0.18515,8.85745385 0.01955,8.23032692 0.5267,8.18691923 L7.8223,7.56436154 L10.672,0.865869231 C10.8698,0.399807692 11.53335,0.399807692 11.73115,0.865869231 Z" id="Path"></path>
            </g>
        </g>
    </g>
</svg>