<?xml version="1.0" encoding="utf-8"?>
<!-- Generator: Adobe Illustrator 19.2.0, SVG Export Plug-In . SVG Version: 6.00 Build 0)  -->
<svg version="1.1" id="Layer_1" xmlns="http://www.w3.org/2000/svg" xmlns:xlink="http://www.w3.org/1999/xlink" x="0px" y="0px"
	 viewBox="0 0 343 45" style="enable-background:new 0 0 343 45;" xml:space="preserve">
<style type="text/css">
	.st0{fill:#FFEC00;}
</style>
<path class="st0" d="M4.9,41.3V2.9h25.8V8H10.9v10.5h17.4v5.2H10.9v12.6h21v5.1h-27V41.3z M42.1,26.4V2.9h6v22.9
	c0,6.3,2.7,11.1,11.1,11.1c8.1,0,10.5-4.5,10.5-11.1V2.9h6v23.5c0,9-5.1,15.6-17.1,15.6C46.8,42,42.1,34.7,42.1,26.4 M87.2,41.3V2.9
	h11.1c10.5,0,16.2,3.6,16.2,11.2c0,4.5-2.7,8.4-7.8,10.5l12,16.2v0.6h-6.6l-10.5-14.5h-8.4v14.5h-6V41.3z M103.5,21.8
	c2.7-1.5,5.1-3.6,5.1-7.5c0-4.8-2.7-6.3-10.2-6.3h-5.1v13.8H103.5z M122.9,22.1c0-10.2,6.9-19.8,20.2-19.8
	c13.2,0,20.1,9.6,20.1,19.8s-6.9,19.8-20.1,19.8C129.8,42,122.9,32.4,122.9,22.1 M156.8,22.1c0-8.4-4.8-14.7-13.8-14.7
	c-9.1,0-13.8,6.3-13.8,14.7S134,36.8,143,36.8C152.1,36.8,156.8,30.5,156.8,22.1 M170.3,39.6v-5.5h0.6c3.6,1.6,8.1,2.7,12,2.7
	c6.9,0,10.2-2.1,10.2-5.7s-2.8-5.2-6.9-6.6l-6.3-2.1c-5.6-1.9-8.4-5.2-8.4-9.9c0-6.6,6.3-10.2,15.3-10.2c3.6,0,9,0.9,11.5,2.1v5.1
	h-0.6c-3.5-1.3-8-2.1-10.8-2.1c-5.8,0-9.3,1.1-9.3,4.8c0,3.3,2.6,4.4,5.7,5.4l6,2.1c5.7,1.9,9.9,4.8,9.9,11.1
	c0,6.9-6.3,11.2-16.2,11.2C178.1,42,173.9,41,170.3,39.6 M219.3,41.3V8h-13.8V2.9h33.3V8h-13.5v33.4h-6V41.3z M239.1,41.3v-0.6
	l15-37.9h7.5l14.1,37.9v0.6h-6.3l-3.7-10.2h-17l-3.9,10.2H239.1z M263.8,26.1l-6.5-17.8l-6.8,17.8H263.8z M284.6,41.3V2.9h11.1
	c10.5,0,16.2,3.6,16.2,11.2c0,4.5-2.7,8.4-7.8,10.5l12,16.2v0.6h-6.6L299,26.9h-8.4v14.5h-6V41.3z M300.8,21.8
	c2.7-1.5,5.1-3.6,5.1-7.5c0-4.8-2.7-6.3-10.2-6.3h-5.1v13.8H300.8z"/>
<polygon class="st0" points="322.6,12.5 322.6,4.5 319.9,4.5 319.9,2.8 327.4,2.8 327.4,4.5 324.7,4.5 324.7,12.5 "/>
<polygon class="st0" points="337.5,12.5 337.5,6.1 335,10 333.9,10 331.4,6.1 331.4,12.5 329.4,12.5 329.4,2.8 331.8,2.8 334.7,7.4 
	337.6,2.8 339.7,2.8 339.7,12.5 "/>
</svg>
